<?xml version="1.0" standalone="no"?><!DOCTYPE svg PUBLIC "-//W3C//DTD SVG 1.1//EN" "http://www.w3.org/Graphics/SVG/1.1/DTD/svg11.dtd" ><svg xmlns="http://www.w3.org/2000/svg"><metadata>Generated by Glyphter</metadata><defs><font id="Glyphter" horiz-adv-x="0"><font-face units-per-em="1024" ascent="1024" descent="0" font-family="Glyphter" font-weight="normal" /><missing-glyph horiz-adv-x="0" /><glyph unicode="&#x0041;" d="M0,1024C0,1024,0,1022,0,1022C0,1022,2,1022,2,1022C2,1022,2,1024,2,1024C2,1024,0,1024,0,1024M1022,2C1022,2,1022,0,1022,0C1022,0,1024,0,1024,0C1024,0,1024,2,1024,2C1024,2,1022,2,1022,2" class="icon-empty"/><glyph unicode="&#x0042;" d="M512.427,523.197C626.278,523.197,718.581,635.304,718.581,773.597C718.581,911.892,688.277,1024,512.427,1024C336.577,1024,306.266,911.892,306.266,773.597C306.266,635.304,398.57,523.197,512.427,523.197C512.427,523.197,512.427,523.197,512.427,523.197M123.041,140.864C123.005,149.296,122.97,143.24,123.041,140.864C123.041,140.864,123.041,140.864,123.041,140.864C123.041,140.864,123.041,140.864,123.041,140.864M901.795,134.279C901.907,136.587,901.833,150.294,901.795,134.279C901.795,134.279,901.795,134.279,901.795,134.279C901.795,134.279,901.795,134.279,901.795,134.279M901.357,150.976C897.539,391.885,866.075,460.531,625.31,503.984C625.31,503.984,591.418,460.797,512.424,460.797C433.43,460.797,399.532,503.984,399.532,503.984C161.394,461.005,128.017,393.377,123.629,158.802C123.269,139.647,123.102,138.641,123.038,140.864C123.052,136.698,123.07,128.992,123.07,115.554C123.07,115.554,180.39,0,512.424,0C844.451,0,901.778,115.554,901.778,115.554C901.778,124.188,901.784,130.191,901.793,134.276C901.728,132.901,901.599,135.566,901.357,150.976C901.357,150.976,901.357,150.976,901.357,150.976" class="icon-007-man-user"/><glyph unicode="&#x0043;" d="M764.208,771.726C757.631,782.424,750.638,792.774,743.198,802.698C682.162,884.093,600.055,928.921,511.999,928.921C423.943,928.921,341.835,884.093,280.799,802.698C273.357,792.774,266.367,782.424,259.787,771.726C307.288,696.019,402.509,644.217,511.996,644.217C621.488,644.217,716.709,696.019,764.208,771.726C764.208,771.726,764.208,771.726,764.208,771.726M988.48,546.482C988.48,546.482,833.134,546.482,833.134,546.482C831.221,576.238,826.919,605.37,820.334,633.481C820.334,633.481,942.456,755.606,942.456,755.606C956.327,769.477,956.327,791.964,942.456,805.835C928.587,819.706,906.097,819.706,892.227,805.835C892.227,805.835,830.743,744.351,830.743,744.351C813.344,713.936,790.011,685.927,761.211,661.41C702.874,611.751,628.028,581.571,547.517,574.697C547.517,574.697,547.517,95.5,547.517,95.5C621.969,105.895,690.452,148.895,743.198,219.232C752.45,231.569,761.043,244.537,768.963,258.053C768.963,258.053,892.229,134.787,892.229,134.787C899.164,127.852,908.255,124.385,917.345,124.385C926.433,124.385,935.525,127.854,942.458,134.787C956.329,148.658,956.329,171.146,942.458,185.017C942.458,185.017,801.384,326.094,801.384,326.094C818.97,372.489,829.765,423.003,833.137,475.448C833.137,475.448,988.482,475.448,988.482,475.448C1008.097,475.448,1024,491.351,1024,510.966C1023.998,530.579,1008.095,546.482,988.48,546.482C988.48,546.482,988.48,546.482,988.48,546.482M476.483,574.695C395.969,581.568,321.124,611.749,262.787,661.408C233.987,685.925,210.654,713.934,193.255,744.349C193.255,744.349,131.771,805.835,131.771,805.835C117.9,819.706,95.41,819.706,81.542,805.835C67.671,791.964,67.671,769.477,81.542,755.606C81.542,755.606,203.664,633.484,203.664,633.484C197.081,605.37,192.777,576.241,190.863,546.484C190.863,546.484,35.518,546.484,35.518,546.484C15.903,546.484,0,530.581,0,510.966C0,491.351,15.903,475.448,35.518,475.448C35.518,475.448,190.863,475.448,190.863,475.448C194.235,423.003,205.03,372.489,222.616,326.094C222.616,326.094,81.542,185.019,81.542,185.019C67.671,171.148,67.671,148.661,81.542,134.79C95.41,120.919,117.9,120.919,131.771,134.79C131.771,134.79,255.037,258.056,255.037,258.056C262.957,244.54,271.55,231.571,280.802,219.235C333.543,148.897,402.029,105.895,476.483,95.502C476.483,95.502,476.483,574.695,476.483,574.695C476.483,574.695,476.483,574.695,476.483,574.695" class="icon-bug"/><glyph unicode="&#x0044;" d="M91.634,48.35C155.434,-15.45,258.961,-15.45,322.761,48.35C322.761,48.35,976.65,702.239,976.65,702.239C1040.45,766.039,1040.45,869.566,976.65,933.366C976.65,933.366,933.366,976.65,933.366,976.65C869.565,1040.45,766.038,1040.45,702.239,976.65C702.239,976.65,48.35,322.761,48.35,322.761C-15.45,258.961,-15.45,155.434,48.35,91.634C48.35,91.634,91.634,48.35,91.634,48.35C91.634,48.35,91.634,48.35,91.634,48.35M357.625,168.479C346.952,157.806,329.52,157.806,318.847,168.479C308.174,179.152,308.174,196.583,318.847,207.256C329.52,217.928,346.952,217.928,357.625,207.256C368.415,196.584,368.415,179.27,357.625,168.479C357.625,168.479,357.625,168.479,357.625,168.479M432.335,243.189C421.662,232.516,404.23,232.516,393.557,243.189C382.884,253.861,382.884,271.293,393.557,281.965C404.23,292.638,421.662,292.638,432.335,281.965C443.125,271.294,443.125,253.861,432.335,243.189C432.335,243.189,432.335,243.189,432.335,243.189M892.333,780.862C903.006,791.534,920.439,791.534,931.111,780.862C941.784,770.189,941.784,752.756,931.111,742.084C920.439,731.411,903.006,731.411,892.333,742.084C881.661,752.756,881.661,770.071,892.333,780.862C892.333,780.862,892.333,780.862,892.333,780.862M856.52,667.375C845.847,656.702,828.416,656.702,817.743,667.375C807.07,678.048,807.07,695.48,817.743,706.153C828.416,716.826,845.847,716.826,856.52,706.153C867.193,695.48,867.193,678.048,856.52,667.375C856.52,667.375,856.52,667.375,856.52,667.375M817.149,856.047C827.822,866.72,845.253,866.72,855.926,856.047C866.599,845.374,866.599,827.942,855.926,817.269C845.253,806.596,827.822,806.596,817.149,817.269C806.476,827.942,806.476,845.256,817.149,856.047C817.149,856.047,817.149,856.047,817.149,856.047M781.81,592.664C771.137,581.991,753.706,581.991,743.033,592.664C732.361,603.337,732.361,620.769,743.033,631.442C753.706,642.115,771.137,642.115,781.81,631.442C792.602,620.769,792.602,603.337,781.81,592.664C781.81,592.664,781.81,592.664,781.81,592.664M781.336,742.439C770.663,731.766,753.231,731.766,742.558,742.439C731.885,753.112,731.885,770.544,742.558,781.217C753.231,791.89,770.663,791.89,781.336,781.217C792.009,770.544,792.009,753.232,781.336,742.439C781.336,742.439,781.336,742.439,781.336,742.439M741.965,931.231C752.638,941.904,770.07,941.904,780.743,931.231C791.416,920.558,791.416,903.126,780.743,892.453C770.07,881.78,752.638,881.78,741.965,892.453C731.292,903.126,731.292,920.44,741.965,931.231C741.965,931.231,741.965,931.231,741.965,931.231M667.374,856.521C678.046,867.194,695.479,867.194,706.152,856.521C716.824,845.848,716.824,828.416,706.152,817.743C695.479,807.07,678.046,807.07,667.374,817.743C656.582,828.415,656.582,845.73,667.374,856.521C667.374,856.521,667.374,856.521,667.374,856.521M706.626,667.849C695.953,657.176,678.521,657.176,667.848,667.849C657.175,678.522,657.175,695.954,667.848,706.627C678.521,717.3,695.953,717.3,706.626,706.627C717.417,695.954,717.417,678.522,706.626,667.849C706.626,667.849,706.626,667.849,706.626,667.849M592.664,781.811C603.337,792.484,620.769,792.484,631.442,781.811C642.115,771.139,642.115,753.706,631.442,743.033C620.769,732.361,603.337,732.361,592.664,743.033C581.872,753.705,581.872,771.139,592.664,781.811C592.664,781.811,592.664,781.811,592.664,781.811M327.741,516.888C327.741,516.888,508.231,697.377,508.231,697.377C522.104,711.252,544.636,711.252,558.511,697.377C558.511,697.377,697.377,558.512,697.377,558.512C711.251,544.637,711.251,522.106,697.377,508.232C697.377,508.232,516.888,327.742,516.888,327.742C503.013,313.868,480.481,313.868,466.607,327.742C466.607,327.742,327.741,466.608,327.741,466.608C313.748,480.481,313.748,503.013,327.741,516.888C327.741,516.888,327.741,516.888,327.741,516.888M318.372,357.151C329.045,367.824,346.477,367.824,357.15,357.151C367.822,346.478,367.822,329.046,357.15,318.373C346.477,307.7,329.045,307.7,318.372,318.373C307.581,329.046,307.581,346.478,318.372,357.151C318.372,357.151,318.372,357.151,318.372,357.151M283.033,93.769C272.36,83.096,254.928,83.096,244.255,93.769C233.582,104.442,233.582,121.873,244.255,132.546C254.928,143.218,272.36,143.218,283.033,132.546C293.706,121.873,293.706,104.56,283.033,93.769C283.033,93.769,283.033,93.769,283.033,93.769M282.56,243.663C271.887,232.99,254.454,232.99,243.782,243.663C233.109,254.336,233.109,271.768,243.782,282.441C254.454,293.114,271.887,293.114,282.56,282.441C293.231,271.768,293.231,254.454,282.56,243.663C282.56,243.663,282.56,243.663,282.56,243.663M243.187,432.335C253.86,443.008,271.293,443.008,281.965,432.335C292.638,421.662,292.638,404.23,281.965,393.557C271.293,382.884,253.86,382.884,243.187,393.557C232.396,404.23,232.396,421.662,243.187,432.335C243.187,432.335,243.187,432.335,243.187,432.335M207.85,168.953C197.177,158.28,179.744,158.28,169.072,168.953C158.399,179.626,158.399,197.058,169.072,207.731C179.744,218.404,197.177,218.404,207.85,207.731C218.522,197.058,218.522,179.744,207.85,168.953C207.85,168.953,207.85,168.953,207.85,168.953M168.478,357.625C179.15,368.298,196.583,368.298,207.256,357.625C217.928,346.952,217.928,329.52,207.256,318.847C196.583,308.174,179.15,308.174,168.478,318.847C157.805,329.52,157.805,346.952,168.478,357.625C168.478,357.625,168.478,357.625,168.478,357.625M93.768,283.034C104.44,293.707,121.873,293.707,132.546,283.034C143.218,272.361,143.218,254.929,132.546,244.256C121.873,233.583,104.44,233.583,93.768,244.256C83.095,254.929,83.095,272.242,93.768,283.034C93.768,283.034,93.768,283.034,93.768,283.034M967.807,57.192C1004.309,93.696,1024.413,142.229,1024.413,193.853C1024.413,245.477,1004.309,294.011,967.807,330.515C967.807,330.515,888.864,409.458,888.864,409.458C888.864,409.458,615.539,136.136,615.539,136.136C615.539,136.136,694.483,57.193,694.483,57.193C730.986,20.689,779.519,0.585,831.145,0.585C882.771,0.585,931.301,20.689,967.806,57.192C967.806,57.192,967.807,57.192,967.807,57.192M56.809,967.429C20.4,930.83,0.421,882.245,0.555,830.622C0.687,778.999,20.916,730.515,57.512,694.107C57.512,694.107,136.659,615.367,136.659,615.367C136.659,615.367,409.277,889.392,409.277,889.392C409.277,889.392,330.13,968.133,330.13,968.133C293.534,1004.542,244.948,1024.52,193.324,1024.387C141.698,1024.253,93.219,1004.026,56.809,967.429C56.809,967.429,56.809,967.429,56.809,967.429M105.86,646.056C105.86,646.056,378.9,919.096,378.9,919.096C378.9,919.096,479.447,818.549,479.447,818.549C479.447,818.549,206.408,545.509,206.408,545.509C206.408,545.509,105.86,646.056,105.86,646.056M548.02,203.896C548.02,203.896,821.06,476.936,821.06,476.936C821.06,476.936,921.608,376.388,921.608,376.388C921.608,376.388,648.568,103.348,648.568,103.348C648.568,103.348,548.02,203.896,548.02,203.896" class="icon-image"/><glyph unicode="&#x0045;" d="M220.91,896.135C220.91,896.135,220.91,701.389,220.91,701.389C220.91,701.389,322.814,701.389,322.814,701.389C322.814,701.389,322.814,896.135,322.814,896.135C322.814,896.135,220.91,896.135,220.91,896.135M792.271,1024C792.271,1024,30,1024,30,1024C30,1024,30,0,30,0C30,0,994.088,0,994.088,0C994.088,0,994.088,822.203,994.088,822.203C994.088,822.203,792.271,1024,792.271,1024C792.271,1024,792.271,1024,792.271,1024M512.068,145.237C410.788,145.237,328.662,227.324,328.662,328.616C328.662,429.909,410.791,512.001,512.068,512.001C613.345,512.001,695.459,429.909,695.459,328.616C695.459,227.324,613.348,145.237,512.068,145.237C512.068,145.237,512.068,145.237,512.068,145.237M751.177,659.179C751.177,659.179,154.978,659.179,154.978,659.179C154.978,659.179,154.978,938.352,154.978,938.352C154.978,938.352,751.174,938.352,751.174,938.352C751.174,938.352,751.174,659.179,751.174,659.179C751.174,659.179,751.177,659.179,751.177,659.179M625.632,328.616C625.632,265.908,574.783,215.047,512.068,215.047C449.285,215.047,398.424,265.908,398.424,328.616C398.424,391.387,449.285,442.266,512.068,442.266C574.783,442.266,625.632,391.387,625.632,328.616C625.632,328.616,625.632,328.616,625.632,328.616" class="icon-015-save"/><glyph unicode="&#x0046;" d="M951.451,944.389C951.451,944.389,72.769,944.389,72.769,944.389C32.757,944.389,0.203,911.843,0.203,871.832C0.203,871.832,0,273.173,0,273.173C0,233.17,32.538,200.494,72.549,200.494C72.549,200.494,360.03,200.494,360.03,200.494C360.03,200.494,360.03,128.506,360.03,128.506C360.03,128.506,303.892,128.506,303.892,128.506C299.476,128.506,296.036,124.748,296.036,120.333C296.036,120.333,296.036,88.754,296.036,88.754C296.036,84.338,299.468,80.5,303.892,80.5C303.892,80.5,718.644,80.5,718.644,80.5C723.044,80.5,727.964,84.338,727.964,88.754C727.964,88.754,727.964,120.333,727.964,120.333C727.964,124.748,723.044,128.506,718.644,128.506C718.644,128.506,663.97,128.506,663.97,128.506C663.97,128.506,663.97,200.494,663.97,200.494C663.97,200.494,951.256,200.494,951.256,200.494C991.235,200.494,1023.813,233.17,1023.813,273.173C1023.813,273.173,1024,871.767,1024,871.767C1024.008,911.786,991.462,944.389,951.451,944.389C951.451,944.389,951.451,944.389,951.451,944.389M511,256.9C497.736,256.9,487.001,267.643,487.001,280.899C487.001,294.146,497.736,304.889,511,304.889C524.256,304.889,534.998,294.146,534.998,280.899C534.998,267.643,524.264,256.9,511,256.9C511,256.9,511,256.9,511,256.9M959.933,360.474C959.933,360.474,64.067,360.474,64.067,360.474C64.067,360.474,64.067,880.403,64.067,880.403C64.067,880.403,959.933,880.403,959.933,880.403C959.933,880.403,959.933,360.474,959.933,360.474C959.933,360.474,959.933,360.474,959.933,360.474" class="icon-014-monitor"/><glyph unicode="&#x0047;" d="M880.33,179.758C880.33,179.758,880.056,180.156,880.056,180.156C880.056,180.156,699.174,432.804,699.174,432.804C699.174,432.804,775.962,416.328,775.962,416.328C788.088,413.274,800.932,417.61,808.728,427.648C817.19,438.554,817.658,453.548,809.884,464.962C809.884,464.962,809.596,465.398,809.596,465.398C809.596,465.398,642.502,693.118,642.502,693.118C642.502,693.118,675.534,686.562,675.534,686.562C687.15,683.664,699.526,687.548,707.424,696.914C716.306,707.462,717.384,722.406,710.112,734.102C710.112,734.102,539.252,1009.048,539.252,1009.048C533.416,1018.414,523.354,1024,512.322,1024C512.314,1024,512.306,1024,512.298,1024C501.26,1023.992,491.198,1018.39,485.376,1009.024C485.376,1009.024,314.54,734.094,314.54,734.094C307.268,722.382,308.354,707.446,317.236,696.906C325.126,687.54,337.494,683.664,349.12,686.562C349.12,686.562,382.15,693.118,382.15,693.118C382.15,693.118,215.37,465.82,215.37,465.82C215.37,465.82,214.76,464.962,214.76,464.962C206.994,453.548,207.462,438.554,215.924,427.648C223.72,417.602,236.572,413.274,248.69,416.328C248.69,416.328,325.478,432.804,325.478,432.804C325.478,432.804,144.87,180.548,144.87,180.548C144.87,180.548,144.322,179.758,144.322,179.758C137.01,168.82,137.252,154.298,144.932,143.61C150.97,135.212,160.72,130.406,170.768,130.406C173.502,130.406,176.26,130.766,178.97,131.5C178.97,131.5,512.322,221.57,512.322,221.57C512.322,221.57,845.658,131.508,845.658,131.508C858.354,128.054,872.04,132.93,879.72,143.61C887.392,154.298,887.634,168.82,880.33,179.758C880.33,179.758,880.33,179.758,880.33,179.758M880.33,179.758M412.33,134.516C412.33,134.516,412.33,35.804,412.33,35.804C412.33,16.062,428.392,0,448.134,0C448.134,0,576.518,0,576.518,0C596.26,0,612.322,16.062,612.322,35.804C612.322,35.804,612.322,134.516,612.322,134.516C612.322,134.516,512.322,161.532,512.322,161.532C512.322,161.532,412.33,134.516,412.33,134.516M412.33,134.516" class="icon-010-pine"/><glyph unicode="&#x0048;" d="M1007.301,566.38C1007.301,566.38,547.866,985.015,547.866,985.015C527.7,1003.393,497.29,1003.391,477.132,985.017C477.132,985.017,17.696,566.378,17.696,566.378C1.542,551.658,-3.794,528.978,4.098,508.6C11.992,488.222,31.212,475.056,53.066,475.056C53.066,475.056,126.446,475.056,126.446,475.056C126.446,475.056,126.446,55.616,126.446,55.616C126.446,38.986,139.93,25.502,156.56,25.502C156.56,25.502,408.387,25.502,408.387,25.502C425.017,25.502,438.501,38.984,438.501,55.616C438.501,55.616,438.501,310.287,438.501,310.287C438.501,310.287,586.504,310.287,586.504,310.287C586.504,310.287,586.504,55.614,586.504,55.614C586.504,38.984,599.988,25.5,616.618,25.5C616.618,25.5,868.433,25.5,868.433,25.5C885.063,25.5,898.547,38.982,898.547,55.614C898.547,55.614,898.547,475.056,898.547,475.056C898.547,475.056,971.941,475.056,971.941,475.056C993.793,475.056,1013.015,488.224,1020.909,508.6C1028.791,528.98,1023.455,551.658,1007.301,566.38C1007.301,566.38,1007.301,566.38,1007.301,566.38M890.681,938.689C890.681,938.689,688.444,938.689,688.444,938.689C688.444,938.689,920.795,727.418,920.795,727.418C920.795,727.418,920.795,908.577,920.795,908.577C920.795,925.207,907.313,938.689,890.681,938.689C890.681,938.689,890.681,938.689,890.681,938.689" class="icon-011-home"/><glyph unicode="&#x0049;" d="M601.353,170.912C601.353,170.912,553.011,219.374,553.011,219.374C553.011,219.374,553.011,490.724,553.011,490.724C553.011,490.724,783.845,627.696,783.845,627.696C783.845,627.696,932.665,587.858,932.665,587.858C936.133,586.93,939.609,586.488,943.035,586.488C960.699,586.488,976.865,598.28,981.649,616.154C987.363,637.494,974.695,659.426,953.355,665.138C953.355,665.138,880.025,684.768,880.025,684.768C880.025,684.768,939.567,720.098,939.567,720.098C958.565,731.372,964.829,755.912,953.555,774.91C942.283,793.91,917.743,800.17,898.743,788.898C898.743,788.898,842.247,755.374,842.247,755.374C849.005,782.082,855.641,808.3,859.789,824.682C865.211,846.098,852.245,867.854,830.829,873.276C809.417,878.698,787.657,865.732,782.235,844.318C782.235,844.318,745.163,697.768,745.163,697.768C745.163,697.768,553.011,583.748,553.011,583.748C553.011,583.748,553.011,805.444,553.011,805.444C553.011,805.444,663.097,914.022,663.097,914.022C678.825,929.534,679.001,954.86,663.487,970.588C647.977,986.318,622.645,986.492,606.921,970.978C606.921,970.978,553.009,917.806,553.009,917.806C553.009,917.806,553.009,984.5,553.009,984.5C553.009,1006.592,535.101,1024.5,513.009,1024.5C490.917,1024.5,473.009,1006.592,473.009,984.5C473.009,984.5,473.009,917.79,473.009,917.79C452.345,938.176,431.769,958.478,419.105,970.974C403.379,986.49,378.055,986.32,362.537,970.596C347.021,954.87,347.189,929.544,362.913,914.028C362.913,914.028,473.009,805.436,473.009,805.436C473.009,805.436,473.009,583.586,473.009,583.586C473.009,583.586,280.883,697.074,280.883,697.074C280.883,697.074,241.703,846.646,241.703,846.646C236.099,868.016,214.235,880.796,192.867,875.194C171.497,869.592,158.715,847.728,164.317,826.358C168.737,809.496,175.853,782.352,183.059,754.856C183.059,754.856,125.355,788.942,125.355,788.942C106.335,800.178,81.805,793.868,70.569,774.846C59.335,755.824,65.645,731.298,84.667,720.062C84.667,720.062,143.241,685.462,143.241,685.462C143.241,685.462,71.221,667.286,71.221,667.286C49.803,661.88,36.821,640.134,42.227,618.714C46.803,600.578,63.093,588.492,80.981,588.492C84.219,588.492,87.513,588.89,90.799,589.718C90.799,589.718,241.109,627.652,241.109,627.652C241.109,627.652,434.493,513.422,434.493,513.422C434.493,513.422,239.787,397.886,239.787,397.886C239.787,397.886,91.235,437.172,91.235,437.172C69.865,442.824,47.983,430.084,42.339,408.728C36.691,387.372,49.425,365.478,70.783,359.83C70.783,359.83,143.325,340.646,143.325,340.646C143.325,340.646,86.455,306.9,86.455,306.9C67.457,295.626,61.193,271.086,72.467,252.088C79.943,239.492,93.249,232.494,106.905,232.494C113.847,232.494,120.879,234.302,127.281,238.1C127.281,238.1,183.031,271.184,183.031,271.184C175.847,244.094,168.757,217.372,164.349,200.76C158.683,179.408,171.399,157.506,192.751,151.84C196.191,150.928,199.641,150.492,203.037,150.492C220.735,150.492,236.919,162.326,241.673,180.242C241.673,180.242,281.237,329.456,281.237,329.456C281.237,329.456,473.011,443.252,473.011,443.252C473.011,443.252,473.011,219.556,473.011,219.556C473.011,219.556,362.923,110.978,362.923,110.978C347.195,95.466,347.019,70.14,362.533,54.412C370.359,46.476,380.683,42.5,391.013,42.5C401.155,42.5,411.307,46.336,419.099,54.022C419.099,54.022,473.011,107.194,473.011,107.194C473.011,107.194,473.011,40.5,473.011,40.5C473.011,18.408,490.919,0.5,513.011,0.5C535.103,0.5,553.011,18.408,553.011,40.5C553.011,40.5,553.011,106.092,553.011,106.092C572.879,86.164,592.501,66.482,604.681,54.262C612.497,46.422,622.751,42.502,633.011,42.502C643.225,42.502,653.445,46.39,661.249,54.172C676.895,69.768,676.937,95.094,661.341,110.74C661.341,110.74,601.353,170.912,601.353,170.912C601.353,170.912,601.353,170.912,601.353,170.912M932.667,437.14C932.667,437.14,786.965,398.136,786.965,398.136C786.965,398.136,685.355,458.156,685.355,458.156C666.335,469.39,641.807,463.082,630.571,444.06C619.335,425.038,625.645,400.512,644.667,389.276C644.667,389.276,744.519,330.296,744.519,330.296C744.519,330.296,784.317,178.358,784.317,178.358C789.029,160.388,805.237,148.492,822.983,148.492C826.341,148.492,829.755,148.918,833.153,149.81C854.525,155.412,867.305,177.276,861.703,198.646C857.157,215.99,849.757,244.218,842.341,272.514C842.341,272.514,900.665,238.062,900.665,238.062C907.049,234.29,914.055,232.496,920.971,232.496C934.655,232.496,947.985,239.522,955.447,252.158C966.683,271.18,960.373,295.706,941.351,306.942C941.351,306.942,883.443,341.148,883.443,341.148C883.443,341.148,953.351,359.862,953.351,359.862C974.691,365.574,987.359,387.506,981.645,408.846C975.937,430.184,953.999,442.856,932.667,437.14C932.667,437.14,932.667,437.14,932.667,437.14" class="icon-snowflake"/><glyph unicode="&#x004a;" d="M512,1024C229.242,1024,0,794.78,0,512C0,229.22,229.242,0,512,0C794.758,0,1024,229.22,1024,512C1024,794.78,794.758,1024,512,1024C512,1024,512,1024,512,1024M654.47,632.698C682.763,632.698,706.872,599.73,716.466,553.272C718.158,544.924,716.021,536.264,710.656,529.653C705.291,523.064,697.21,519.19,688.729,519.19C688.729,519.19,620.255,519.19,620.255,519.19C611.729,519.19,603.67,523.019,598.305,529.631C592.918,536.22,590.803,544.924,592.518,553.249C602.09,599.73,626.198,632.698,654.47,632.698C654.47,632.698,654.47,632.698,654.47,632.698M369.53,632.698C397.824,632.698,421.933,599.708,431.505,553.272C433.219,544.924,431.082,536.264,425.695,529.653C420.33,523.064,412.249,519.19,403.768,519.19C403.768,519.19,335.293,519.19,335.293,519.19C326.79,519.19,318.731,523.019,313.344,529.631C307.979,536.242,305.842,544.924,307.556,553.272C317.106,599.708,341.215,632.698,369.53,632.698C369.53,632.698,369.53,632.698,369.53,632.698M512,184.12C378.724,184.12,262.344,256.467,199.88,363.987C194.783,372.758,194.783,383.555,199.836,392.348C204.889,401.141,214.239,406.506,224.39,406.506C224.39,406.506,799.61,406.506,799.61,406.506C809.717,406.506,819.089,401.096,824.142,392.326C829.24,383.555,829.24,372.736,824.142,364.01C761.656,256.467,645.254,184.12,512,184.12C512,184.12,512,184.12,512,184.12" class="icon-013-mood"/><glyph unicode="&#x004b;" d="M0,1024.5C0,1024.5,0,1022.496,0,1022.496C0,1022.496,2.004,1022.496,2.004,1022.496C2.004,1022.496,2.004,1024.5,2.004,1024.5C2.004,1024.5,0,1024.5,0,1024.5M757.317,778.327C754.097,782.513,748.007,783.97,742.919,781.778C678.615,754.042,584.474,696.974,513.499,585.13C554.637,528.627,590.293,455.881,608.993,363.267C611.444,455.819,631.742,655.319,755.896,764.911C759.942,768.46,760.525,774.141,757.317,778.327C757.317,778.327,757.317,778.327,757.317,778.327M333.161,698.273C331.239,699.423,329.047,699.974,326.854,699.974C323.728,699.974,320.616,698.824,318.356,696.608C314.54,692.85,314.296,687.145,317.761,683.131C442.945,538.102,408.261,287.791,398.222,230.173C397.693,227.151,398.641,224.077,400.833,221.752C403.025,219.45,406.231,218.091,409.602,218.091C409.602,218.091,570.739,218.091,570.739,218.091C573.839,218.091,576.775,219.205,578.941,221.189C581.105,223.171,582.309,225.852,582.269,228.644C578.534,510.536,425.515,643.544,333.161,698.273C333.161,698.273,333.161,698.273,333.161,698.273M235.608,445.513C233.376,446.834,230.398,446.505,228.584,444.73C226.773,442.942,226.651,440.249,228.302,438.339C287.666,369.583,271.224,250.909,266.448,223.6C266.19,222.155,266.665,220.834,267.679,219.72C268.721,218.618,270.25,218.103,271.847,218.103C271.847,218.103,348.234,218.103,348.234,218.103C349.683,218.103,351.09,218.52,352.118,219.45C353.146,220.381,353.715,221.604,353.701,222.926C351.941,356.571,279.412,419.562,235.608,445.513C235.608,445.513,235.608,445.513,235.608,445.513M799.646,530.758C797.129,533.218,793.069,533.683,789.957,531.846C729.563,496.068,629.55,409.096,627.087,224.762C627.047,222.962,627.884,221.323,629.265,220.013C630.686,218.716,632.594,218.103,634.638,218.103C634.638,218.103,739.983,218.103,739.983,218.103C742.202,218.103,744.274,218.862,745.72,220.393C747.127,221.91,747.75,223.844,747.426,225.816C740.863,263.492,718.183,427.139,800.051,521.981C802.325,524.6,802.149,528.297,799.646,530.758C799.646,530.758,799.646,530.758,799.646,530.758M1021.996,2.504C1021.996,2.504,1021.996,0.5,1021.996,0.5C1021.996,0.5,1024,0.5,1024,0.5C1024,0.5,1024,2.504,1024,2.504C1024,2.504,1021.996,2.504,1021.996,2.504" class="icon-method-draw-image"/><glyph unicode="&#x004c;" d="M730.156,738.449C657.549,858.291,576.793,962.012,535.114,1013.174C529.536,1020.025,521.167,1024.003,512.333,1024C503.497,1024,495.131,1020.023,489.551,1013.171C447.874,961.993,367.118,858.237,294.511,738.385C200.944,583.927,153.5,456.224,153.5,358.831C153.5,160.971,314.471,0,512.331,0C710.191,0,871.161,160.971,871.161,358.831C871.164,456.288,823.726,584.009,730.156,738.449C730.156,738.449,730.156,738.449,730.156,738.449M561.572,132.164C540.619,126.806,518.87,124.092,496.915,124.092C362.857,124.092,253.794,225.408,253.794,349.944C253.794,380.008,261.727,415.135,277.367,454.343C280.009,460.968,287.537,464.747,294.957,463.145C302.373,461.547,307.352,455.083,306.588,448.052C305.674,439.643,305.209,431.429,305.209,423.648C305.209,288.123,414.412,174.634,559.224,159.675C566.431,158.93,572.054,153.539,572.628,146.821C573.205,140.103,568.563,133.954,561.572,132.164C561.572,132.164,561.572,132.164,561.572,132.164" class="icon-021-drop-silhouette"/><glyph unicode="&#x004d;" d="M927.514,728.177C927.514,770.198,904.711,807.292,870.243,826.989C880.686,865.291,870.582,907.641,840.868,937.353C811.156,967.068,768.805,977.171,730.503,966.729C710.806,1001.197,673.712,1024,631.691,1024C589.671,1024,552.579,1001.199,532.88,966.731C494.58,977.171,452.222,967.065,422.513,937.356C392.801,907.641,382.695,865.291,393.14,826.991C358.672,807.292,335.871,770.198,335.871,728.179C335.871,686.161,358.672,649.067,393.14,629.368C382.695,591.065,392.801,548.715,422.515,519.001C442.378,499.137,467.897,488.09,494.07,486.032C483.559,431.976,471.724,356.046,462.431,255.648C462.431,255.648,398.986,308.518,398.986,308.518C407.128,346.477,412.883,419.42,357.288,475.014C266.407,565.896,134.688,558.377,129.122,558.013C129.122,558.013,99.249,556.056,99.249,556.056C99.249,556.056,97.292,526.185,97.292,526.185C96.928,520.623,89.412,388.898,180.291,298.019C217.947,260.363,262.09,250.262,298.64,250.262C320.786,250.262,340.128,253.973,353.556,257.514C353.556,257.514,455.766,172.34,455.766,172.34C453.549,139.758,451.631,105.065,450.093,68.267C450.093,68.267,210.713,68.267,210.713,68.267C191.862,68.267,176.579,52.984,176.579,34.133C176.579,15.283,191.862,0,210.713,0C210.713,0,756.847,0,756.847,0C775.698,0,790.981,15.283,790.981,34.133C790.981,52.984,775.698,68.267,756.847,68.267C756.847,68.267,518.414,68.267,518.414,68.267C526.128,249.659,543.584,377.691,558.598,458.89C578.443,442.267,603.996,432.357,631.691,432.357C673.712,432.357,710.804,455.158,730.503,489.626C768.796,479.185,811.158,489.291,840.87,519.001C870.582,548.715,880.688,591.065,870.243,629.368C904.713,649.065,927.514,686.157,927.514,728.177C927.514,728.177,927.514,728.177,927.514,728.177M631.691,625.777C575.137,625.777,529.291,671.623,529.291,728.177C529.291,784.732,575.137,830.577,631.691,830.577C688.246,830.577,734.092,784.732,734.092,728.177C734.092,671.623,688.246,625.777,631.691,625.777C631.691,625.777,631.691,625.777,631.691,625.777" class="icon-018-rose"/><glyph unicode="&#x004e;" d="M854.613,769.504C854.613,853.412,786.593,921.432,702.685,921.432C698.065,921.432,693.503,921.192,688.987,920.788C654.087,982.408,587.933,1024,512.057,1024C436.181,1024,370.026,982.408,335.124,920.788C330.608,921.192,326.046,921.432,321.428,921.432C237.52,921.432,169.5,853.412,169.5,769.504C169.5,728.461,185.802,691.247,212.25,663.907C196.35,634.935,187.302,601.671,187.302,566.291C187.302,454.061,278.284,363.079,390.514,363.079C410.112,363.079,429.055,365.869,446.985,371.047C446.985,371.047,446.985,60.104,446.985,60.104C446.985,60.104,404.244,60.104,404.244,60.104C387.646,60.104,374.192,46.648,374.192,30.052C374.192,13.454,387.648,0,404.244,0C404.244,0,619.867,0,619.867,0C636.465,0,649.919,13.456,649.919,30.052C649.919,46.65,636.463,60.104,619.867,60.104C619.867,60.104,577.127,60.104,577.127,60.104C577.127,60.104,577.127,371.047,577.127,371.047C595.057,365.869,613.999,363.079,633.597,363.079C745.827,363.079,836.809,454.059,836.809,566.291C836.809,601.671,827.759,634.935,811.861,663.907C838.309,691.247,854.613,728.461,854.613,769.504C854.613,769.504,854.613,769.504,854.613,769.504" class="icon-017-tree"/><glyph unicode="&#x004f;" d="M108.5,627.749C108.5,364.33,322.979,0,512.411,0C690.743,0,916.321,364.33,916.321,627.749C916.321,891.168,735.484,1024,512.409,1024C289.335,1024,108.5,891.168,108.5,627.749C108.5,627.749,108.5,627.749,108.5,627.749M617.354,432.963C666.672,482.281,735.479,500.217,798.984,486.795C812.405,423.29,794.47,354.483,745.152,305.165C695.834,255.848,627.027,237.911,563.522,251.333C550.1,314.84,568.037,383.647,617.354,432.963C617.354,432.963,617.354,432.963,617.354,432.963M225.835,486.797C289.34,500.217,358.147,482.282,407.464,432.965C456.782,383.647,474.719,314.84,461.296,251.335C397.792,237.914,328.985,255.849,279.667,305.167C230.349,354.486,212.414,423.292,225.835,486.797C225.835,486.797,225.835,486.797,225.835,486.797" class="icon-001-alien"/><glyph unicode="&#x0050;" d="M1018.712,689.466C1018.712,689.466,908.384,804.563,908.384,804.563C908.384,804.563,956.403,835.189,956.403,835.189C956.403,835.189,959.206,859.057,959.206,859.057C959.206,859.057,936.933,860.385,936.933,860.385C936.933,860.385,879.169,818.837,879.169,818.837C879.169,818.837,807.088,818.775,807.088,818.775C807.088,818.775,762.963,845.717,762.963,845.717C762.963,845.717,747.158,842.491,747.158,842.491C747.158,842.491,747.391,824.975,747.391,824.975C747.391,824.975,775.834,793.473,775.834,793.473C775.834,793.473,772.084,776.925,772.084,776.925C772.084,776.925,437.352,740.927,437.352,740.927C437.352,740.927,90.629,750.609,90.629,750.609C90.629,750.609,53.266,734.947,53.266,734.947C53.266,734.947,25.744,699.975,25.744,699.975C25.744,699.975,11.584,618.175,11.584,618.175C11.584,618.175,9.083,559.373,9.083,559.373C9.083,559.373,0.5,504.466,0.5,504.466C0.5,504.466,2.859,449.778,2.859,449.778C2.859,449.778,12.512,447.804,12.512,447.804C12.512,447.804,26.543,463.251,26.543,463.251C26.543,463.251,37.949,514.564,37.949,514.564C37.949,514.564,28.704,585.747,28.704,585.747C28.704,585.747,31.92,586.232,31.92,586.232C31.92,586.232,53.653,477.863,53.653,477.863C53.653,477.863,38.849,383.815,38.849,383.815C38.849,383.815,52.366,196.113,52.366,196.113C52.366,196.113,53.653,175.327,53.653,175.327C53.653,175.327,66.825,164.09,66.825,164.09C66.825,164.09,125.065,164,125.065,164C125.065,164,143.831,169.677,143.831,169.677C143.831,169.677,91.727,254.527,91.727,254.527C91.727,254.527,117.576,362.28,117.576,362.28C117.576,362.28,131.114,362.256,131.114,362.256C131.114,362.256,178.349,218.991,178.349,218.991C178.349,218.991,202.697,182.211,202.697,182.211C202.697,182.211,214.709,174.817,214.709,174.817C214.709,174.817,278.998,174.77,278.998,174.77C278.998,174.77,287.247,185.092,287.247,185.092C287.247,185.092,231.594,219.278,231.594,219.278C231.594,219.278,193.861,335.486,193.861,335.486C193.861,335.486,203.32,354.351,203.32,354.351C203.32,354.351,225.485,352.294,225.485,352.294C225.485,352.294,239.402,318.217,239.402,318.217C239.402,318.217,259.562,351.433,259.562,351.433C259.562,351.433,279.095,318.075,279.095,318.075C279.095,318.075,295.64,354.296,295.64,354.296C295.64,354.296,344.339,391.73,344.339,391.73C344.339,391.73,517.151,408.279,517.151,408.279C517.151,408.279,546.155,372.819,546.155,372.819C546.155,372.819,570.601,199.467,570.601,199.467C570.601,199.467,583.461,174.559,583.461,174.559C583.461,174.559,642.344,174.582,642.344,174.582C642.344,174.582,648.692,183.916,648.692,183.916C648.692,183.916,612.902,233.73,612.902,233.73C612.902,233.73,608.601,328.587,608.601,328.587C608.601,328.587,627.928,317.86,627.928,317.86C627.928,317.86,648.285,254.85,648.285,254.85C648.285,254.85,674.175,173.032,674.175,173.032C674.175,173.032,685.784,164.032,685.784,164.032C685.784,164.032,738.468,164,738.468,164C738.468,164,742.842,175.898,742.842,175.898C742.842,175.898,727.44,190.152,727.44,190.152C727.44,190.152,677.761,287.239,677.761,287.239C677.761,287.239,689.213,388.985,689.213,388.985C689.213,388.985,744.881,430.163,744.881,430.163C744.881,430.163,825.971,580.781,825.971,580.781C825.971,580.781,919.303,623.868,919.303,623.868C919.303,623.868,1005.131,633.639,1005.131,633.639C1005.131,633.639,1012.488,641.617,1012.488,641.617C1012.488,641.617,1024.5,675.469,1024.5,675.469C1024.5,675.469,1018.712,689.466,1018.712,689.466" class="icon-003-cow-silhouette"/><glyph unicode="&#x0051;" d="M7.166,675.706C-39.709,555.762,148.314,370.197,427.127,261.236C705.94,152.275,969.962,161.177,1016.835,281.121C1046.002,355.756,984.214,455.797,866.201,546.981C865.383,509.041,857.915,471.781,843.932,436.001C837.978,420.761,824.361,399.995,793.311,387.607C775.152,380.362,752.498,376.687,725.978,376.687C657.782,376.687,559.708,401.22,463.633,442.31C417.647,461.979,375.008,484.35,340.328,507.005C300.387,533.097,271.343,559.202,254.004,584.597C228.238,622.329,231.768,653.121,239.268,672.308C253.269,708.134,273.192,740.715,298.14,768.98C149.577,781.973,36.333,750.336,7.166,675.706C7.166,675.706,7.166,675.706,7.166,675.706M914.89,334.593C927.743,344.043,947.865,338.506,959.834,322.228C971.802,305.949,971.084,285.093,958.231,275.642C945.377,266.192,925.254,271.729,913.287,288.007C901.318,304.286,902.036,325.143,914.89,334.593C914.89,334.593,914.89,334.593,914.89,334.593M416.31,344.041C422.738,360.492,444.721,367.276,465.408,359.191C486.094,351.106,497.653,331.216,491.222,314.764C484.794,298.313,462.811,291.528,442.124,299.615C421.438,307.699,409.883,327.59,416.31,344.041C416.31,344.041,416.31,344.041,416.31,344.041M85.855,611.371C66.021,607.521,47.477,617.097,44.436,632.758C41.396,648.421,55.013,664.236,74.845,668.086C94.679,671.936,113.224,662.36,116.264,646.699C119.304,631.038,105.691,615.221,85.855,611.371C85.855,611.371,85.855,611.371,85.855,611.371M725.978,415.963C767.648,415.963,797.924,426.179,807.351,450.297C823.529,491.693,829.374,534.578,826.14,576.105C817.909,681.811,750.832,778.724,645.455,819.904C611.333,833.24,576.221,839.556,541.671,839.555C469.526,839.55,399.921,811.979,347.359,763.218C316.819,734.887,292.027,699.409,275.849,658.01C239.763,565.669,566.435,415.963,725.978,415.963C725.978,415.963,725.978,415.963,725.978,415.963" class="icon-002-ufo"/><glyph unicode="&#x0052;" d="M21.376,834.187C161.916,715.165,408.519,505.769,480.999,440.479C490.729,431.667,501.165,427.187,511.999,427.187C522.811,427.187,533.229,431.625,542.937,440.395C615.479,505.749,862.082,715.165,1002.624,834.187C1011.374,841.583,1012.708,854.583,1005.624,863.625C989.248,884.519,964.832,896.499,938.664,896.499C938.664,896.499,85.334,896.499,85.334,896.499C59.168,896.499,34.75,884.519,18.376,863.623C11.292,854.583,12.626,841.583,21.376,834.187C21.376,834.187,21.376,834.187,21.376,834.187M1011.624,769.687C1004.062,773.207,995.166,771.979,988.874,766.603C896.832,688.583,775.562,585.499,684.105,506.833C679.293,502.707,676.585,496.645,676.689,490.291C676.793,483.957,679.731,477.979,684.689,474.021C769.668,405.959,897.73,312.334,990.208,245.792C993.896,243.126,998.27,241.772,1002.666,241.772C1006,241.772,1009.332,242.542,1012.396,244.126C1019.522,247.772,1024,255.106,1024,263.106C1024,263.106,1024,750.333,1024,750.333C1023.998,758.645,1019.164,766.207,1011.624,769.687C1011.624,769.687,1011.624,769.687,1011.624,769.687M33.792,245.792C126.292,312.334,254.376,405.957,339.333,474.021C344.291,477.979,347.229,483.959,347.333,490.291C347.437,496.645,344.729,502.707,339.917,506.833C248.458,585.499,127.166,688.583,35.126,766.603C28.792,771.979,19.876,773.165,12.376,769.687C4.834,766.207,0,758.645,0,750.333C0,750.333,0,263.104,0,263.104C0,255.104,4.48,247.77,11.604,244.124C14.666,242.54,18,241.77,21.334,241.77C25.73,241.77,30.104,243.124,33.792,245.792C33.792,245.792,33.792,245.792,33.792,245.792M997.852,187.75C908.54,251.646,744.019,370.77,645.811,450.479C637.811,456.999,626.227,456.791,618.353,449.999C599.083,433.187,582.957,419.019,571.519,408.729C536.393,377.022,487.643,377.022,452.435,408.771C441.039,419.041,424.915,433.251,405.643,450.001C397.831,456.835,386.227,457.043,378.205,450.481C280.329,371.044,115.622,251.774,26.164,187.752C21.184,184.168,17.976,178.648,17.352,172.544C16.748,166.44,18.768,160.378,22.956,155.878C39.104,138.48,61.854,128.5,85.334,128.5C85.334,128.5,938.666,128.5,938.666,128.5C962.146,128.5,984.874,138.48,1001.062,155.876C1005.228,160.356,1007.27,166.418,1006.666,172.522C1006.04,178.624,1002.832,184.166,997.852,187.75C997.852,187.75,997.852,187.75,997.852,187.75" class="icon-004-mail"/><glyph unicode="&#x0053;" d="M0,552.607C0,552.607,0,25.776,0,25.776C0,25.776,330.991,290.582,330.991,290.582C330.991,290.582,0,552.607,0,552.607M364.339,307.7C364.339,307.7,642.611,307.7,642.611,307.7C642.611,307.7,1001.643,591.962,1001.643,591.962C1001.643,591.962,555.383,1007.433,555.383,1007.433C531.729,1029.432,492.254,1029.449,468.599,1007.416C468.599,1007.416,14.507,584.658,14.507,584.658C14.507,584.658,364.339,307.7,364.339,307.7C364.339,307.7,364.339,307.7,364.339,307.7M642.543,273.567C642.543,273.567,364.39,273.567,364.39,273.567C364.39,273.567,23.057,0.5,23.057,0.5C23.057,0.5,983.859,0.5,983.859,0.5C983.859,0.5,642.543,273.567,642.543,273.567M675.942,290.582C675.942,290.582,1024,12.139,1024,12.139C1024,12.139,1024,566.106,1024,566.106C1024,566.106,675.942,290.582,675.942,290.582" class="icon-005-envelope"/><glyph unicode="&#x0054;" d="M894.803,435.647C894.803,435.647,591.692,435.647,591.692,435.647C570.75,435.647,553.713,418.609,553.713,397.668C553.713,397.668,553.713,38.479,553.713,38.479C553.713,17.537,570.75,0.5,591.692,0.5C591.692,0.5,894.803,0.5,894.803,0.5C915.745,0.5,932.782,17.537,932.782,38.479C932.782,38.479,932.782,397.668,932.782,397.668C932.782,418.609,915.745,435.647,894.803,435.647C894.803,435.647,894.803,435.647,894.803,435.647M432.663,735.945C432.663,735.945,68.479,735.945,68.479,735.945C47.537,735.945,30.5,718.908,30.5,697.966C30.5,697.966,30.5,556.696,30.5,556.696C30.5,535.755,47.537,518.717,68.479,518.717C68.479,518.717,432.663,518.717,432.663,518.717C453.605,518.717,470.642,535.755,470.642,556.696C470.642,556.696,470.642,697.966,470.642,697.966C470.642,718.908,453.605,735.945,432.663,735.945C432.663,735.945,432.663,735.945,432.663,735.945M955.876,735.945C955.876,735.945,591.692,735.945,591.692,735.945C570.75,735.945,553.713,718.908,553.713,697.966C553.713,697.966,553.713,556.696,553.713,556.696C553.713,535.755,570.75,518.717,591.692,518.717C591.692,518.717,955.876,518.717,955.876,518.717C976.818,518.717,993.855,535.755,993.855,556.696C993.855,556.696,993.855,697.966,993.855,697.966C993.855,718.908,976.818,735.945,955.876,735.945C955.876,735.945,955.876,735.945,955.876,735.945M432.663,435.647C432.663,435.647,129.555,435.647,129.555,435.647C108.613,435.647,91.575,418.609,91.575,397.668C91.575,397.668,91.575,38.479,91.575,38.479C91.575,17.537,108.613,0.5,129.555,0.5C129.555,0.5,432.663,0.5,432.663,0.5C453.605,0.5,470.642,17.537,470.642,38.479C470.642,38.479,470.642,397.668,470.642,397.668C470.642,418.609,453.605,435.647,432.663,435.647C432.663,435.647,432.663,435.647,432.663,435.647M312.794,808.082C312.794,808.082,711.564,808.082,711.564,808.082C754.784,808.082,780.645,824.616,794.731,838.489C813.148,856.625,823.291,881.575,823.291,908.74C823.291,965.64,777.427,1024.5,700.682,1024.5C692.98,1024.5,685.009,1023.902,676.99,1022.723C626.797,1015.339,560.334,974.145,512.179,936.345C464.026,974.142,397.558,1015.339,347.37,1022.723C339.349,1023.902,331.375,1024.5,323.673,1024.5C246.92,1024.5,201.057,965.643,201.057,908.742C201.057,881.577,211.199,856.627,229.619,838.489C243.705,824.616,269.568,808.082,312.794,808.082C312.794,808.082,312.794,808.082,312.794,808.082" class="icon-009-gift-box"/><glyph unicode="&#x0055;" d="M345.231,716.488C345.231,716.488,141.12,512.348,141.12,512.348C141.12,512.348,345.231,308.297,345.231,308.297C368.03,285.468,368.03,248.434,345.231,225.635C333.773,214.177,318.895,208.507,303.9,208.507C288.905,208.507,274.027,214.177,262.569,225.635C262.569,225.635,17.129,471.047,17.129,471.047C6.167,481.979,0,496.857,0,512.348C0,527.811,6.167,542.718,17.129,553.679C17.129,553.679,262.569,799.149,262.569,799.149C285.398,821.948,322.402,821.948,345.231,799.149C368.03,776.321,368.03,739.374,345.231,716.488C345.231,716.488,345.231,716.488,345.231,716.488M1006.871,553.708C1006.871,553.708,761.46,799.178,761.46,799.178C738.632,821.977,701.627,821.977,678.799,799.178C655.97,776.35,655.97,739.345,678.799,716.517C678.799,716.517,882.88,512.378,882.88,512.378C882.88,512.378,678.799,308.297,678.799,308.297C655.97,285.468,655.97,248.434,678.799,225.635C690.257,214.177,705.164,208.507,720.129,208.507C735.095,208.507,750.031,214.177,761.46,225.635C761.46,225.635,1006.871,471.047,1006.871,471.047C1017.833,482.008,1024,496.886,1024,512.378C1024,527.811,1017.833,542.747,1006.871,553.708C1006.871,553.708,1006.871,553.708,1006.871,553.708M614.172,912.443C582.721,920.539,551.007,901.54,542.998,870.323C542.998,870.323,367.62,183.486,367.62,183.486C359.67,152.211,378.523,120.35,409.77,112.341C414.651,111.085,419.532,110.5,424.297,110.5C450.428,110.5,474.162,128.125,480.914,154.491C480.914,154.491,656.292,841.327,656.292,841.327C664.301,872.632,645.418,904.463,614.172,912.443C614.172,912.443,614.172,912.443,614.172,912.443" class="icon-code"/></font>
</defs>
</svg>
